<?xml version="1.0" encoding="UTF-8"?>
<!-- Generator: visioncortex VTracer -->
<svg id="svg" version="1.1" xmlns="http://www.w3.org/2000/svg" style="display: block;" viewBox="0 0 5000 5000"><path d="M0,0 L672,0 L672,2178 L3819,2177 L3827,2165 L3843,2142 L3854,2126 L3870,2103 L3886,2080 L3897,2064 L3913,2041 L3924,2025 L3940,2002 L3951,1986 L3967,1963 L3983,1940 L3994,1924 L4010,1901 L4021,1885 L4037,1862 L4048,1846 L4064,1823 L4080,1800 L4091,1784 L4107,1761 L4118,1745 L4134,1722 L4145,1706 L4161,1683 L4177,1660 L4188,1644 L4204,1621 L4215,1605 L4231,1582 L4242,1566 L4258,1543 L4274,1520 L4285,1504 L4301,1481 L4312,1465 L4328,1442 L4332,1436 L4332,1042 L4319,1011 L4302,971 L4283,926 L4264,881 L4244,834 L4225,789 L4208,749 L4189,704 L4177,676 L4177,673 L2243,673 L1939,672 L1939,0 L4628,0 L4648,49 L4663,86 L4683,135 L4700,177 L4720,226 L4737,268 L4757,317 L4774,359 L4794,408 L4811,450 L4831,499 L4848,541 L4868,590 L4885,632 L4905,681 L4922,723 L4942,772 L4959,814 L4979,863 L4996,905 L4999,912 L4999,1651 L4988,1667 L4976,1684 L4962,1704 L4948,1724 L4934,1744 L4920,1764 L4906,1784 L4892,1804 L4878,1824 L4864,1844 L4852,1861 L4838,1881 L4824,1901 L4810,1921 L4796,1941 L4782,1961 L4768,1981 L4754,2001 L4740,2021 L4728,2038 L4714,2058 L4700,2078 L4686,2098 L4672,2118 L4658,2138 L4644,2158 L4630,2178 L4618,2195 L4604,2215 L4590,2235 L4576,2255 L4562,2275 L4548,2295 L4534,2315 L4520,2335 L4506,2355 L4494,2372 L4480,2392 L4466,2412 L4452,2432 L4438,2452 L4424,2472 L4410,2492 L4400,2506 L4402,2511 L4415,2529 L4428,2547 L4440,2564 L4452,2581 L4465,2599 L4477,2616 L4490,2634 L4504,2654 L4517,2672 L4529,2689 L4542,2707 L4554,2724 L4566,2741 L4579,2759 L4591,2776 L4604,2794 L4618,2814 L4631,2832 L4643,2849 L4656,2867 L4670,2887 L4683,2905 L4695,2922 L4708,2940 L4720,2957 L4732,2974 L4745,2992 L4757,3009 L4770,3027 L4784,3047 L4797,3065 L4809,3082 L4822,3100 L4836,3120 L4849,3138 L4861,3155 L4874,3173 L4886,3190 L4898,3207 L4911,3225 L4923,3242 L4936,3260 L4950,3280 L4963,3298 L4975,3315 L4988,3333 L4999,3349 L4999,4088 L4987,4117 L4972,4154 L4952,4203 L4935,4245 L4915,4294 L4898,4336 L4878,4385 L4861,4427 L4841,4476 L4824,4518 L4804,4567 L4787,4609 L4765,4663 L4750,4700 L4728,4754 L4713,4791 L4691,4845 L4676,4882 L4654,4936 L4639,4973 L4628,5000 L3891,5000 L3894,4990 L3910,4953 L3929,4908 L3952,4854 L3971,4809 L3994,4755 L4011,4715 L4030,4670 L4053,4616 L4070,4576 L4089,4531 L4112,4477 L4131,4432 L4154,4378 L4171,4338 L4184,4308 L4203,4263 L4220,4223 L4239,4178 L4258,4133 L4278,4086 L4297,4041 L4317,3994 L4332,3958 L4332,3564 L4322,3550 L4309,3532 L4296,3514 L4283,3496 L4273,3482 L4260,3464 L4247,3446 L4234,3428 L4224,3414 L4211,3396 L4198,3378 L4185,3360 L4175,3346 L4162,3328 L4149,3310 L4136,3292 L4126,3278 L4113,3260 L4100,3242 L4087,3224 L4077,3210 L4064,3192 L4051,3174 L4038,3156 L4028,3142 L4015,3124 L4002,3106 L3989,3088 L3979,3074 L3966,3056 L3953,3038 L3940,3020 L3930,3006 L3917,2988 L3904,2970 L3891,2952 L3881,2938 L3868,2920 L3855,2902 L3842,2884 L3832,2870 L3819,2852 L3819,2850 L672,2850 L672,4328 L2910,4328 L2907,4337 L2892,4372 L2873,4417 L2850,4471 L2831,4516 L2808,4570 L2791,4610 L2772,4655 L2749,4709 L2732,4749 L2713,4794 L2690,4848 L2671,4893 L2648,4947 L2631,4987 L2626,4999 L2625,5000 L0,5000 Z " transform="translate(0,0)" style="fill: #FFFFFF;"/></svg>